<?xml version="1.0" encoding="UTF-8" standalone="no"?>
<svg
   version="1.0"
   width="1024.000000pt"
   height="1024.000000pt"
   viewBox="0 0 1024.000000 1024.000000"
   preserveAspectRatio="xMidYMid meet"
   id="svg262"
   sodipodi:docname="LinuxGDE.svg"
   inkscape:version="1.2.2 (b0a8486541, 2022-12-01)"
   xmlns:inkscape="http://www.inkscape.org/namespaces/inkscape"
   xmlns:sodipodi="http://sodipodi.sourceforge.net/DTD/sodipodi-0.dtd"
   xmlns="http://www.w3.org/2000/svg"
   xmlns:svg="http://www.w3.org/2000/svg">
  <defs
     id="defs266" />
  <sodipodi:namedview
     id="namedview264"
     pagecolor="#ffffff"
     bordercolor="#000000"
     borderopacity="0.25"
     inkscape:showpageshadow="2"
     inkscape:pageopacity="0.0"
     inkscape:pagecheckerboard="0"
     inkscape:deskcolor="#d1d1d1"
     inkscape:document-units="pt"
     showgrid="false"
     inkscape:zoom="0.52734375"
     inkscape:cx="579.31852"
     inkscape:cy="675.08148"
     inkscape:window-width="1920"
     inkscape:window-height="1012"
     inkscape:window-x="0"
     inkscape:window-y="0"
     inkscape:window-maximized="1"
     inkscape:current-layer="g260" />
  <metadata
     id="metadata2">
Created by potrace 1.16, written by Peter Selinger 2001-2019
</metadata>
  <g
     transform="translate(0.000000,1024.000000) scale(0.100000,-0.100000)"
     fill="#000000"
     stroke="none"
     id="g260">
    <path
       d="m 8671.4445,9827.4535 c -190.9743,-46.7689 -354.6664,-120.8197 -454.051,-202.6665 -190.9743,-155.8964 -409.2306,-407.2814 -602.1536,-693.7427 -101.3332,-153.9488 -159.7948,-231.8974 -526.1537,-721.0254 -358.5638,-477.4358 -483.2818,-631.3844 -984.1021,-1214.0509 -58.4616,-66.2563 -159.7948,-190.9743 -226.0511,-278.6665 -68.2052,-85.7434 -228,-278.6665 -356.6153,-428.7177 -126.6666,-148.1026 -272.8203,-323.4871 -321.5383,-387.7947 -48.7179,-64.3076 -171.4872,-208.5128 -268.923,-321.5382 -259.1793,-294.2565 -664.5125,-808.7177 -896.4099,-1139.9997 -173.4358,-243.5896 -498.8714,-683.9997 -678.1535,-913.9483 -173.4358,-224.1024 -543.692,-615.7945 -633.333,-672.3073 -66.2563,-40.9231 -134.4615,-157.8461 -167.5898,-284.5127 -31.1793,-118.8718 -27.2819,-567.0767 7.795,-697.6408 58.4615,-224.1025 224.1024,-448.2049 432.6151,-578.7689 50.6668,-33.1282 165.641,-81.8462 255.282,-111.077 138.3589,-42.8717 185.1282,-48.7179 341.0255,-40.9229 321.5384,15.5897 356.6153,46.7691 759.9997,641.1279 212.4101,313.7435 313.7434,498.8715 481.333,874.974 99.3846,227.9998 212.4102,415.0767 588.5126,968.5123 284.5128,418.9743 701.5382,976.3072 1163.3842,1553.1275 268.9229,333.2307 335.1792,417.0255 440.41,551.487 286.4614,364.4101 1198.461,1405.0249 1562.8711,1781.1275 489.128,504.7177 802.8714,783.3842 976.3073,869.1277 196.8204,97.4359 224.1025,148.1025 233.8461,436.5127 15.5897,426.769 -124.7179,705.4351 -457.9485,900.3068 -237.7436,138.3599 -432.6153,171.4885 -670.3588,111.0768 z M 7601.5988,8358.1214 c 0,-3.8975 -15.5898,-19.4872 -33.1281,-33.1283 -31.1795,-25.3333 -33.1282,-23.3846 -7.7949,7.7949 25.3332,31.1794 40.923,40.9231 40.923,25.3334 z m -81.8461,-103.282 c -83.7948,-99.3846 -493.0254,-604.1023 -617.7434,-765.8459 -151.9997,-192.9229 -329.3331,-403.3844 -500.8202,-584.6151 -192.9229,-208.5127 -294.2562,-323.487 -387.7946,-438.4613 -163.6923,-206.5642 -841.8458,-964.615 -861.333,-964.615 -5.8462,0 33.1281,50.6666 85.7435,113.0256 311.7947,364.4101 557.3332,654.7689 662.5638,783.3843 64.3077,79.8974 261.1281,307.8972 436.5126,506.6664 175.3845,198.7691 473.5383,543.6921 660.6151,767.7945 354.6665,424.8203 522.2562,615.7946 541.7434,615.7946 5.8462,0 -3.8974,-15.5897 -19.4872,-33.1281 z"
       id="path4"
       style="stroke-width:1.94872" />
    <path
       d="m 3162.4213,9790.4287 c -434.5639,-150.0521 -627.487,-436.513 -627.487,-935.3844 0,-346.8717 -7.7948,-331.282 380,-713.2306 335.1793,-329.3332 531.9997,-549.5382 902.2559,-1007.4868 220.2051,-274.769 695.6921,-898.3585 880.8202,-1155.5891 192.923,-266.9743 179.2819,-259.1794 270.8716,-159.7948 40.9231,44.8204 116.9231,134.4614 169.5385,198.7691 52.6154,64.3076 161.7434,196.8204 243.5896,292.3076 151.9999,181.2306 214.3589,253.3332 561.2304,683.9997 111.0771,138.3589 220.2051,265.0255 241.6411,282.564 38.9743,31.1794 38.9743,33.1281 -19.4871,64.3077 -124.718,64.3075 -761.9486,613.8457 -1151.692,993.8457 -227.9998,220.2049 -422.8715,463.7946 -643.0766,800.9226 -298.1537,457.9483 -296.2051,452.1028 -379.9999,528.1029 -40.9229,38.9741 -130.564,95.4871 -196.8203,126.6664 -105.2309,48.7182 -140.3077,56.5131 -294.2563,56.5131 -140.3076,-1.9493 -208.5128,-13.6416 -337.1281,-56.5131 z"
       id="path6"
       style="stroke-width:1.94872" />
    <path
       d="m 7348.2656,5949.507 c 0,-11.6923 -33.128,-52.6153 -74.0512,-93.5384 -42.8718,-38.9743 -91.5897,-95.4871 -111.0768,-126.6666 l -33.1283,-52.6153 114.9743,-190.9743 c 397.5383,-648.9229 791.1792,-1297.8457 888.6151,-1465.4352 64.3077,-105.2309 190.9742,-290.3589 284.5126,-407.2819 286.4614,-356.6153 489.128,-699.5895 489.128,-824.3075 0,-97.4358 -79.8974,-227.9997 -261.128,-426.7691 -122.7692,-134.4613 -208.5128,-208.5126 -274.7691,-241.6408 -120.8205,-60.4103 -364.4101,-130.5641 -381.9486,-111.0769 -5.8462,7.7949 -23.3846,58.4615 -37.0257,111.0769 -42.8717,163.6922 -89.6409,235.7948 -378.0511,582.6665 -151.9999,183.1793 -313.7434,385.846 -356.6152,450.1536 -42.8718,64.3076 -120.8205,153.9486 -169.5383,200.7178 -50.6668,48.718 -118.8718,142.2564 -155.8974,214.3589 -76,150.0512 -140.3077,218.2563 -342.9743,360.5127 -132.5128,93.5384 -148.1025,113.0256 -187.0768,218.2563 -50.6666,142.2563 -140.3077,321.5384 -159.7949,321.5384 -15.5896,-1.9489 -272.8203,-335.1795 -288.41,-378.0512 -5.8463,-17.5385 -1.9487,-31.1794 11.6922,-31.1794 21.4359,0 140.3077,-109.1282 506.6664,-467.6922 105.2309,-101.3333 245.5385,-237.7435 313.7436,-302.0512 97.4358,-91.5897 130.564,-136.4101 151.9998,-208.5127 31.1796,-113.0255 243.5898,-489.1279 335.1794,-594.3587 37.0257,-42.8717 163.6923,-185.1281 280.6154,-313.7434 118.8717,-130.5641 288.4101,-321.5384 379.9997,-426.7691 397.5384,-455.9998 514.4614,-545.6407 771.692,-592.4101 274.7691,-50.6665 631.3843,54.5642 830.1534,245.5385 233.846,224.1025 307.8974,440.4101 307.8974,896.4098 0,372.205 -11.6922,403.3845 -198.7691,604.1023 -70.154,76 -163.6922,181.2307 -206.5641,233.846 -42.8718,54.5642 -128.6153,150.0514 -190.9742,214.359 -198.7692,206.5641 -590.4614,697.6407 -697.6408,876.9227 -198.7691,331.2819 -553.4357,896.4099 -789.2304,1256.9226 -265.0255,407.2818 -372.205,539.7945 -372.205,467.692 z"
       id="path8"
       style="stroke-width:1.94872" />
    <path
       d="m 1210.1061,546.02307 c -46.3297,7.35339 -104.7932,25.73868 -241.57491,80.89268 -154.43158,62.50772 -213.63022,77.21549 -379.82802,113.9853 -106.99898,18.38441 -257.05513,56.99243 -286.36028,68.75847 -26.5106,10.66252 -54.05111,32.72423 -62.4713,50.74168 -3.92697,8.08929 -5.99321,22.42966 -5.99321,40.81374 0,25.00322 2.66479,36.03393 21.9217,93.02643 34.98973,103.69043 36.68116,145.97503 9.47552,237.89873 -30.12892,101.8517 -23.07995,175.3899 20.32996,212.5275 24.52487,20.9578 42.39475,24.6352 124.28079,24.6352 79.56878,0 106.44739,4.0454 137.26004,20.9585 35.48233,19.4873 55.44818,48.9033 78.98045,116.5589 15.07551,43.7556 25.0032,61.0377 34.56341,61.0377 7.72161,0 14.34007,-19.1198 14.34007,-42.2853 0,-20.5908 -23.16473,-107.3664 -34.56329,-129.7961 -12.13412,-24.2671 -28.68021,-43.0195 -47.76348,-54.0502 -35.59289,-20.9587 -104.16788,-26.4747 -179.39799,-15.076 -48.05748,7.7215 -75.63447,5.8828 -94.01957,-5.1479 -27.20924,-16.5457 -31.65824,-53.6834 -11.91299,-99.645 38.24002,-88.6147 45.5572,-107.7347 53.64649,-137.5177 9.59691,-35.6662 11.141,-66.9199 5.11104,-104.0573 -5.99363,-36.7697 -16.5462,-59.9342 -47.76347,-103.68943 -16.1051,-22.7974 -30.84966,-47.06546 -32.79837,-54.41907 -5.5154,-19.85533 2.6105,-34.93127 24.52514,-46.32969 18.60552,-9.19237 283.93346,-77.95073 471.38406,-120.23594 57.72741,-14.70722 162.88851,-40.44601 233.48531,-58.83042 70.965,-18.3854 144.5044,-33.09328 163.6246,-36.76981 59.1982,-7.35438 113.985,0 151.8575,22.0616 52.5798,33.09262 89.3493,109.20547 93.7614,197.81971 2.9424,58.46342 -9.927,111.04392 -44.1232,179.06725 -26.1057,52.2126 -38.9752,72.4354 -162.8882,259.5912 -218.77796,329.4543 -313.64245,439.3954 -394.53542,456.3091 -26.10672,5.1479 -43.38818,2.2054 -78.31895,-13.6053 -33.46061,-15.0749 -44.85905,-15.8109 -52.94827,-3.6765 -7.72149,11.7659 -13.97247,77.5834 -11.76616,125.384 2.57392,55.5212 13.23692,88.6135 53.68323,167.3006 80.15741,155.1671 112.88211,229.4412 167.66837,378.7249 56.25786,152.961 79.05426,195.2457 167.6688,310.7016 48.5361,62.8757 107.3665,145.9746 148.9161,209.9534 15.811,23.9001 46.3296,68.3912 68.0236,98.9099 61.7725,86.7757 64.7139,94.8651 58.8309,168.7717 -8.825,111.4111 -23.5323,484.9882 -23.5323,607.0627 -0.3701,116.1914 0.3703,133.8409 7.7215,180.9057 15.0752,96.1888 38.6074,168.3672 75.3771,230.8749 13.9724,24.4152 29.7832,43.719 59.5669,73.7966 59.5663,60.0812 111.0431,88.9084 198.1867,111.7052 70.9648,18.5759 88.9822,20.4218 195.2459,20.3264 109.5723,-0.098 144.5034,-4.4308 226.1321,-27.8823 191.2009,-54.9336 328.3502,-187.377 374.3123,-361.7745 16.9137,-64.3466 26.1067,-140.8266 39.3431,-325.4091 13.9724,-197.4518 22.4297,-266.9461 41.182,-344.8971 12.5013,-52.9481 27.5775,-87.879 80.5247,-187.5241 106.6318,-200.0256 150.755,-269.8875 259.9603,-410.3468 172.0807,-221.3518 255.179,-397.1098 304.4502,-643.4648 42.2858,-211.7915 47.4331,-293.052 23.1652,-366.2236 -14.7077,-44.1233 -29.0479,-66.1849 -79.4218,-121.7068 -105.8959,-117.2947 -223.9257,-190.8329 -304.8185,-190.8329 -73.5392,0 -140.827,50.006 -188.995,140.8268 -22.4296,50.0061 -19.4882,90.0852 -83.8344,75.7451 -31.2538,-8.4573 -56.9926,-46.33 -64.7143,-95.2331 -5.8827,-34.9308 -4.78,-168.7714 1.4713,-202.2317 2.5744,-15.0751 11.3989,-59.934 18.7524,-99.2772 13.2375,-68.0234 13.9723,-75.3779 13.9723,-145.2389 0,-64.3475 -1.4712,-83.8346 -12.1338,-154.43213 -9.9279,-66.18501 -11.7654,-88.98163 -10.6626,-125.01598 1.4712,-41.91671 2.2054,-45.96196 14.7079,-72.06815 15.0749,-33.0924 48.1675,-69.86188 76.8476,-88.2464 63.2436,-40.44678 151.4898,-44.12298 225.7641,-7.35438 20.9589,11.03102 51.4778,33.09262 102.9546,73.53951 83.4663,67.65528 145.6069,110.67606 192.6716,134.57609 18.0172,8.82442 61.4047,25.37106 96.3358,36.76961 144.8723,46.6966 211.057,74.64133 247.8268,105.16013 43.7553,35.666 64.7141,74.2741 56.9924,103.3222 -9.9278,36.0338 -51.4775,61.7726 -136.4146,83.8341 -63.9791,16.914 -79.4222,24.6353 -105.528,53.3157 -23.1654,25.371 -41.1819,61.7727 -54.4196,110.308 -12.8693,47.4325 -14.7078,124.2813 -3.6771,154.432 7.7219,21.3259 15.4441,31.2538 24.2687,31.2538 10.2956,0 15.4426,-18.0172 18.3841,-66.1847 3.6773,-53.6833 12.1346,-81.9956 36.7696,-118.0304 34.9312,-51.8449 72.0687,-85.3051 156.2701,-141.194 87.8794,-58.0963 112.1463,-86.0407 112.1463,-130.5316 0,-42.285 -18.7519,-62.8756 -114.3522,-127.22193 -78.3194,-52.9484 -107.7343,-69.86185 -173.9193,-98.54215 -130.5322,-56.99276 -223.1907,-120.23605 -322.8357,-219.51347 -85.3051,-84.56987 -122.4428,-110.30866 -198.5557,-121.33968 -34.1949,-3.67631 -108.8371,-3.67631 -152.5924,3.6773 -92.6595,11.03069 -143.0335,44.1232 -185.3182,121.33869 -26.8416,47.80072 -39.3431,58.83141 -71.7005,62.5086 -13.9723,0 -168.4037,3.67631 -343.4259,3.67631 -287.5375,0 -322.1006,-3.67631 -359.2371,-7.3535 -100.7488,-18.3843 -150.387,-40.44623 -240.1041,-113.98541 -50.7418,-44.12309 -73.9071,-58.83097 -98.5422,-69.86199 -20.2231,-7.3535 -65.4499,-11.03069 -87.1438,-7.3535 z m 331.6599,237.16264 c 8.0895,6.98533 20.2239,23.16446 27.2096,36.03369 11.0308,20.5909 12.5015,26.84176 13.6044,58.46313 2.5745,58.09574 -9.9272,90.82104 -51.109,134.20847 -28.3124,29.7831 -32.3576,42.6525 -16.1786,50.007 15.0759,6.6175 34.1949,-1.8377 68.3914,-30.5188 64.714,-54.78623 102.9543,-63.97953 244.1482,-61.03713 151.8579,3.6763 234.5892,19.4871 318.0556,61.40503 54.0512,27.2095 89.718,58.0955 134.9441,118.0295 31.9895,41.9176 46.3297,56.2577 64.346,63.6112 29.7831,12.5015 45.5941,-11.7665 44.8591,-69.4942 -0.3702,-26.8415 -3.3091,-43.7562 -15.4429,-88.6141 -33.0926,-119.50123 -43.3883,-186.78901 -34.1962,-220.98427 5.5159,-19.85577 22.7976,-34.93094 38.6083,-33.46046 11.0308,1.10319 11.399,1.83788 14.3401,23.16457 1.4713,12.13377 7.7215,53.31557 13.9723,91.92392 5.883,38.24011 13.2374,87.87834 16.5466,110.30794 7.7214,58.0953 13.6044,238.2665 13.9722,433.8794 0.3703,168.7713 0.3703,169.1392 9.1923,194.8781 6.9855,19.8552 13.2373,29.7831 27.5764,44.1232 22.4296,22.0618 43.3884,30.1511 90.8211,33.4603 l 31.6217,2.5732 4.4119,22.4297 c 10.6629,51.1091 41.1818,80.1573 101.4838,96.3359 19.4881,5.1479 38.9753,6.9859 80.893,6.9859 60.6699,0 77.5834,-3.6767 132.3695,-30.1502 24.636,-11.7665 45.9619,-15.8109 45.9619,-8.8253 0,5.516 -29.7831,33.4603 -53.6833,50.3739 -12.5015,9.1924 -34.1952,20.959 -47.8004,26.4748 -18.7523,7.7215 -25.738,12.5016 -26.4739,18.0165 -0.7327,4.4122 4.7801,29.0481 12.1339,55.1539 21.3266,77.2157 28.3123,126.1194 28.68,199.6582 0.7328,120.9715 -20.5908,201.1287 -90.82,336.8078 -65.0818,125.7517 -133.8412,218.0429 -188.2593,252.606 -15.8109,9.5601 -34.5633,16.1786 -34.5633,12.134 0,-1.4715 13.2365,-20.9587 29.0475,-43.7557 75.0099,-106.2637 152.9603,-241.9427 186.0535,-324.674 26.8418,-66.1851 47.0648,-155.9024 53.3157,-237.5303 10.6629,-133.8412 -25.7388,-248.1933 -88.2465,-276.1388 -12.5014,-5.8829 -26.4748,-8.0886 -56.9925,-8.8245 -48.5364,-1.8376 -55.1541,0.733 -68.0236,26.474 l -9.1922,18.3853 -2.2065,147.0771 c -4.045,250.3999 -15.8109,293.0523 -147.0775,530.2151 -40.4471,72.8033 -48.5355,91.9236 -65.817,158.1085 -35.299,136.0468 -69.495,215.8367 -123.1783,287.9044 -81.9961,109.573 -92.6586,155.1673 -59.9344,256.283 20.9591,65.8171 20.5912,99.645 -1.4712,122.0744 -16.1784,16.5462 -28.6801,22.4294 -102.5865,45.9619 -112.1466,35.6664 -163.9912,67.6556 -178.3313,109.9406 -14.3404,41.5493 -4.0452,109.2052 21.6937,142.6651 18.3852,24.2678 41.9175,34.5633 77.9513,34.5633 23.9001,-0.3683 33.4604,-2.2063 50.006,-9.5601 25.3712,-12.1338 45.594,-29.4153 55.8899,-48.9032 11.031,-20.9585 10.6631,-70.5972 -0.7328,-106.999 -18.752,-59.1984 -18.0162,-52.948 -4.78,-64.7142 23.9005,-21.3261 61.7728,-23.1648 78.3193,-3.3093 14.3405,16.914 18.7522,34.1956 20.591,82.7313 2.2056,52.948 -3.3091,88.2468 -25.0029,154.7994 -29.7841,91.188 -59.567,117.662 -149.6521,132.3697 -67.2877,11.0307 -104.0574,2.2064 -137.8856,-32.7246 -52.9474,-55.1542 -79.4212,-143.0332 -68.7584,-231.2796 5.883,-48.9036 4.7802,-51.1098 -22.7972,-42.285 -24.6353,7.7217 -78.6865,13.9723 -109.9401,12.869 -33.4601,-1.471 -36.4018,1.4715 -36.4018,38.9757 -0.3704,152.5934 -46.3297,235.692 -130.532,234.9569 -58.4633,0 -105.8959,-44.4913 -123.5444,-115.0884 -6.9865,-27.5771 -5.5158,-106.6314 2.2056,-152.5931 15.8107,-90.4527 50.0068,-135.6791 76.8486,-100.3806 11.0308,15.0754 20.5909,34.1956 20.5909,40.4464 0,2.5739 -8.4572,8.457 -18.3851,13.2371 -11.0311,5.1476 -20.9589,13.2368 -25.3708,20.591 -20.9591,33.46 -31.2542,93.3941 -22.4297,125.3834 11.3986,40.4464 66.9206,65.4497 105.161,47.4327 32.3566,-15.443 66.9204,-86.7758 63.2432,-131.6346 -2.9413,-35.6663 -9.56,-46.697 -41.9176,-70.5973 -16.1777,-11.7662 -42.2845,-33.0924 -58.4635,-47.4324 -16.1778,-14.3401 -36.0337,-30.8864 -44.1231,-36.7696 -41.1814,-29.783 -64.346,-64.7141 -64.346,-97.8066 0,-21.694 8.8242,-33.46 36.4015,-47.065 21.6938,-11.0305 41.182,-30.1508 61.7729,-60.3016 27.5766,-39.7111 60.302,-52.2127 135.3111,-51.845 91.5555,0.3683 173.5521,19.8555 327.2475,77.2159 83.4672,31.2539 106.6318,41.182 111.4119,48.5357 13.6042,19.8553 29.4152,33.8278 38.9753,33.8278 12.8694,0 24.268,-12.1339 24.268,-25.3711 0,-22.4292 -34.5631,-40.8139 -154.4312,-81.6279 -35.299,-12.134 -90.0852,-34.1957 -121.3395,-48.9034 -63.2435,-30.1507 -80.892,-36.4018 -122.4418,-44.491 -34.1962,-6.6184 -113.2503,-7.3541 -156.6379,-1.4714 -35.2988,4.7801 -56.6245,2.2063 -54.7868,-6.9861 1.8374,-9.5601 83.4672,-73.171 102.2194,-80.1573 26.4738,-9.1925 78.6864,-11.031 112.5147,-3.3093 51.1086,11.0308 212.5267,80.5249 292.6847,125.3837 26.8416,15.0755 41.9167,21.3263 51.4766,21.3263 16.1787,0.3684 28.6803,-9.9277 28.6803,-22.797 0,-13.9726 -27.2097,-37.8725 -56.9927,-50.3742 -52.5804,-21.3262 -63.6112,-27.2092 -115.8237,-60.3018 -71.3329,-45.5942 -102.5866,-68.3912 -149.6514,-109.5729 -50.3738,-43.7558 -64.7141,-49.6388 -120.6038,-50.3741 -44.4912,-0.3684 -58.0956,4.0448 -87.1436,29.0479 -22.7969,19.4876 -77.2159,87.1434 -92.6586,115.4559 -16.1788,29.4155 -52.2125,70.2297 -61.7727,70.2297 -6.2508,0 -6.9866,-1.4714 -17.6495,-47.8002 -7.3533,-33.0926 -34.563,-95.6006 -78.6861,-182.0088 -52.9485,-104.0572 -55.5222,-113.2495 -55.5222,-222.4551 0,-91.188 2.2057,-83.4663 -42.2845,-145.2389 -54.4191,-76.4806 -138.9892,-276.1382 -159.2121,-376.8867 -15.4428,-75.3772 -26.1058,-203.703 -23.1645,-275.7706 2.2067,-57.3606 -0.7328,-74.2742 -14.3401,-82.7315 -13.9724,-8.8243 -30.5189,0.3703 -64.71411,34.196 -53.68347,54.0513 -70.96493,98.9092 -70.59697,184.5825 0.37026,54.4185 5.14698,96.3357 15.81095,136.7823 9.19188,34.5631 9.55997,44.4908 1.10279,42.6523 -8.82501,-1.4714 -28.68026,-42.2847 -38.24011,-78.6866 -5.8829,-21.694 -8.0897,-44.1232 -9.56033,-89.7176 -1.47112,-55.8895 -1.10292,-63.9788 7.72161,-102.9542 11.03073,-48.9034 31.98962,-94.4972 61.03761,-132.7375 44.49036,-58.8312 269.88726,-258.8564 419.90636,-373.2095 36.034,-27.2096 76.1126,-61.405 89.3502,-75.745 79.4211,-86.0407 63.9782,-164.727 -44.4912,-225.3973 -16.9143,-9.5591 -30.8867,-18.0161 -30.8867,-18.7521 0,-0.7326 13.9724,-20.2229 30.8867,-42.6523 62.1399,-83.83443 98.1745,-145.23899 110.6762,-188.25977 8.4561,-28.31202 8.0892,-69.12576 -1.1032,-95.23195 -3.6765,-11.76659 -5.8831,-21.32669 -4.4126,-21.32669 1.4714,0 9.1924,7.35372 17.2819,12.86956 z m 63.6115,2737.85079 c -11.3989,21.6938 9.9277,40.4463 46.3294,40.4463 12.8698,0 24.2676,-1.4714 25.371,-3.677 2.5736,-4.4124 -9.9279,-11.0305 -20.9587,-11.0305 -6.6185,0 -10.2949,-3.6773 -15.8107,-15.8114 -5.883,-12.8693 -9.1924,-15.8108 -19.1204,-16.5461 -8.8241,-0.7346 -12.5015,0.7347 -15.8106,6.6187 z m 218.0425,15.8108 c -21.3261,7.7215 -37.8726,18.3846 -33.8273,22.4292 1.103,1.1031 13.6042,2.9414 27.5764,4.4124 33.0923,2.9416 45.5939,-1.8377 45.5939,-16.5461 0,-7.3538 -2.5736,-12.5018 -6.9855,-15.0758 -4.0451,-1.8377 -7.7217,-3.6769 -8.4575,-3.3091 -0.3702,0 -11.3987,3.6768 -23.9,8.0894 z m -765.5395,-1030.647 c 35.2989,36.4017 45.2272,54.7864 43.0205,80.8929 -1.103,18.0172 -8.0894,24.2677 -22.7974,20.5907 -10.663,-2.5735 -16.546,-13.6047 -26.106,-47.0647 -4.0441,-16.1785 -10.6631,-26.8418 -25.7388,-43.7556 -20.2228,-22.7971 -23.9002,-31.2542 -15.8109,-39.3431 8.4575,-8.4572 15.4429,-4.4127 47.4326,28.6798 z m 1414.152,620.6678 c 7.7214,4.7799 23.1645,42.6526 23.1645,56.9924 0,11.399 -2.2057,16.5464 -11.3978,25.0034 -6.2509,5.8832 -12.8694,10.6632 -14.7082,10.6632 -1.8375,0 -16.1786,5.883 -31.9895,13.6048 -19.1201,9.1921 -36.0339,20.5907 -52.5803,36.7694 -13.2365,12.5016 -26.106,23.1648 -28.3126,23.1648 -2.2056,0 -5.1469,-4.4127 -6.6188,-9.5603 -4.044,-16.9139 1.8377,-43.0199 17.2828,-73.9065 13.2361,-27.5769 18.0163,-33.0926 48.5352,-58.0956 32.7245,-26.8416 44.859,-31.9896 56.6247,-24.6356 z M 1587.36,3619.2106 c 4.4129,11.3985 3.3092,20.2233 -8.0887,57.3604 -4.7799,16.1783 -11.7664,29.7832 -19.12,37.8722 -10.664,11.3989 -12.5015,12.1344 -20.9588,7.7217 -12.1334,-6.6184 -11.0308,-21.3261 3.3093,-37.5046 10.6629,-12.1341 19.855,-35.2985 24.2672,-61.7729 2.9425,-16.9138 14.7081,-19.1198 20.591,-3.6768 z m 518.0816,10.2955 c 8.0894,9.56 2.2056,55.1542 -8.8253,72.0681 -11.3978,17.2815 -37.8723,33.0924 -58.8304,35.2985 -13.9731,1.8377 -16.5464,0.7367 -20.5908,-6.2508 -5.148,-9.56 -2.5743,-12.5014 15.4431,-18.0169 22.7964,-7.3537 43.7554,-38.6077 49.2711,-73.1711 2.2054,-12.8693 4.0442,-15.4433 10.6629,-15.4433 4.7799,0 10.2959,2.574 12.8694,5.5155 z m 24.6351,495.2843 c 26.4746,18.2742 28.3123,19.0831 53.6833,19.745 32.3574,0.8458 39.3431,3.5664 39.3431,14.9652 0,17.7593 -61.0368,71.8842 -86.7757,76.6639 -25.7379,4.8538 -34.9309,-9.1186 -40.0779,-61.4415 -2.2067,-19.5614 -4.7804,-27.7243 -13.2374,-38.2035 -11.3989,-14.4504 -13.2372,-22.9439 -5.8829,-30.2243 7.3535,-7.5377 23.1645,-1.9856 52.9475,18.4952 z"
       id="path710"
       style="stroke-width:3.67694" />
  </g>
</svg>
